<svg width="20" height="20" viewBox="0 0 20 20" fill="none" xmlns="http://www.w3.org/2000/svg">
<path d="M10 4.99992C10 5.44195 10.1756 5.86587 10.4882 6.17843C10.8007 6.49099 11.2246 6.66659 11.6667 6.66659C12.1087 6.66659 12.5326 6.49099 12.8452 6.17843C13.1577 5.86587 13.3333 5.44195 13.3333 4.99992M10 4.99992C10 4.55789 10.1756 4.13397 10.4882 3.82141C10.8007 3.50885 11.2246 3.33325 11.6667 3.33325C12.1087 3.33325 12.5326 3.50885 12.8452 3.82141C13.1577 4.13397 13.3333 4.55789 13.3333 4.99992M10 4.99992H3.33334M13.3333 4.99992H16.6667M5.00001 9.99992C5.00001 10.4419 5.1756 10.8659 5.48817 11.1784C5.80073 11.491 6.22465 11.6666 6.66668 11.6666C7.1087 11.6666 7.53263 11.491 7.84519 11.1784C8.15775 10.8659 8.33334 10.4419 8.33334 9.99992M5.00001 9.99992C5.00001 9.55789 5.1756 9.13397 5.48817 8.82141C5.80073 8.50885 6.22465 8.33325 6.66668 8.33325C7.1087 8.33325 7.53263 8.50885 7.84519 8.82141C8.15775 9.13397 8.33334 9.55789 8.33334 9.99992M5.00001 9.99992H3.33334M8.33334 9.99992H16.6667M12.5 14.9999C12.5 15.4419 12.6756 15.8659 12.9882 16.1784C13.3007 16.491 13.7246 16.6666 14.1667 16.6666C14.6087 16.6666 15.0326 16.491 15.3452 16.1784C15.6577 15.8659 15.8333 15.4419 15.8333 14.9999M12.5 14.9999C12.5 14.5579 12.6756 14.134 12.9882 13.8214C13.3007 13.5088 13.7246 13.3333 14.1667 13.3333C14.6087 13.3333 15.0326 13.5088 15.3452 13.8214C15.6577 14.134 15.8333 14.5579 15.8333 14.9999M12.5 14.9999H3.33334M15.8333 14.9999H16.6667" stroke="#64748B" stroke-width="1.3" stroke-linecap="round" stroke-linejoin="round"/>
</svg>
