<svg width="25" height="24" viewBox="0 0 25 24" fill="none" xmlns="http://www.w3.org/2000/svg">
<path d="M24.5013 12.001C24.5012 9.70711 23.8438 7.46133 22.6068 5.52958C21.3699 3.59783 19.6052 2.06103 17.5218 1.10119C15.4385 0.141354 13.1237 -0.201317 10.8516 0.113762C8.57945 0.42884 6.44524 1.38847 4.70167 2.879C2.95809 4.36953 1.67821 6.32852 1.01358 8.52397C0.348954 10.7194 0.327431 13.0594 0.95156 15.2667C1.57569 17.474 2.81932 19.4562 4.53518 20.9785C6.25104 22.5009 8.36724 23.4996 10.6332 23.8564V15.468H7.57684V12.001H10.6332V9.35713C10.6332 6.34881 12.4111 4.6882 15.1581 4.6882C16.0581 4.70079 16.956 4.77923 17.8446 4.92289V7.87608H16.3315C14.8398 7.87608 14.3758 8.80062 14.3758 9.75006V12.001H17.7041L17.1707 15.468H14.3758V23.8546C17.1983 23.4076 19.7687 21.9683 21.6248 19.7954C23.4809 17.6225 24.5009 14.8587 24.5013 12.001Z" fill="#4676ED"/>
<path d="M17.1715 15.4675L17.7049 11.9987H14.3766V9.7496C14.3766 8.80017 14.8406 7.87563 16.3323 7.87563H17.8454V4.92244C16.9568 4.77878 16.0589 4.70034 15.1589 4.68774C12.4119 4.68774 10.634 6.34836 10.634 9.35667V12.0005H7.57764V15.4675H10.634V23.8542C11.8769 24.0486 13.1425 24.0486 14.3855 23.8542V15.4675H17.1715Z" fill="white"/>
</svg>
