<svg width="24" height="24" viewBox="0 0 24 24" fill="none" xmlns="http://www.w3.org/2000/svg">
<path fill-rule="evenodd" clip-rule="evenodd" d="M1.31934 6.61936C1.81891 5.54263 2.52486 4.60321 3.35264 3.75312C5.22583 1.82934 7.49386 0.597335 10.1786 0.177127C13.9363 -0.411062 17.2994 0.457137 20.2058 2.90922C20.3894 3.06418 20.4347 3.15475 20.2351 3.34632C19.2093 4.33054 18.1997 5.33095 17.1841 6.32542C17.0799 6.42746 17.0096 6.552 16.8246 6.38582C14.2659 4.08869 10.0893 4.11486 7.37038 6.59241C6.43695 7.44301 5.77317 8.46237 5.33859 9.63088C5.27517 9.59021 5.20853 9.55392 5.14873 9.5088C3.87183 8.54617 2.59565 7.58263 1.31934 6.61936Z" fill="#D7282A"/>
<path fill-rule="evenodd" clip-rule="evenodd" d="M5.31077 14.3224C5.67753 15.2351 6.13336 16.0982 6.81076 16.8312C8.53323 18.6951 10.6683 19.4992 13.2264 19.2389C14.415 19.118 15.498 18.7236 16.5098 18.1175C16.607 18.2025 16.6993 18.2934 16.8016 18.3718C17.9859 19.2777 19.1716 20.1817 20.3569 21.0862C19.0499 22.3025 17.5066 23.1122 15.7706 23.5423C11.6775 24.556 7.90451 23.9153 4.55411 21.3247C3.16899 20.2537 2.07951 18.9307 1.31152 17.3647C2.64474 16.3506 3.97776 15.3365 5.31077 14.3224Z" fill="#45AC43"/>
<path fill-rule="evenodd" clip-rule="evenodd" d="M20.356 21.0862C19.1707 20.1817 17.985 19.2776 16.8008 18.3718C16.6984 18.2934 16.606 18.2025 16.5089 18.1175C17.3115 17.5174 17.9812 16.8076 18.4209 15.9058C18.5963 15.5463 18.7195 15.1699 18.836 14.7894C18.9164 14.5271 18.8915 14.425 18.5603 14.4278C16.5875 14.4442 14.6146 14.436 12.6417 14.4359C12.2238 14.4359 12.2235 14.4356 12.2235 14.0122C12.2233 12.702 12.2299 11.3918 12.2179 10.0816C12.2156 9.82891 12.2607 9.73183 12.5511 9.73267C16.1898 9.74305 19.8288 9.74079 23.4676 9.73596C23.664 9.7357 23.7875 9.75001 23.8216 9.98413C24.2744 13.1025 23.9115 16.0821 22.2457 18.8341C21.7358 19.6765 21.123 20.446 20.356 21.0862Z" fill="#5D7FBE"/>
<path fill-rule="evenodd" clip-rule="evenodd" d="M5.30811 14.3224C3.97509 15.3365 2.64207 16.3506 1.30892 17.3648C0.657907 16.1789 0.282401 14.9048 0.107148 13.5779C-0.196388 11.2787 0.137212 9.0667 1.13255 6.95714C1.18722 6.84125 1.25649 6.73199 1.31892 6.61951C2.59523 7.58265 3.87141 8.54625 5.14831 9.50876C5.20811 9.55381 5.27475 9.59017 5.33817 9.63084C4.80353 11.1916 4.83017 12.7556 5.30811 14.3224Z" fill="#F4C300"/>
</svg>
