<svg xmlns="http://www.w3.org/2000/svg" fill="none" version="1.1" width="18" height="28" viewBox="0 0 18 28"><defs><clipPath id="master_svg0_3_041"><rect x="0" y="5" width="18" height="18" rx="0"/></clipPath></defs><g><rect x="0" y="0" width="18" height="28" rx="0" fill="#000000" fill-opacity="0" style="mix-blend-mode:passthrough"/><g clip-path="url(#master_svg0_3_041)"><g transform="matrix(1,0,0,-1,0,44.52342987060547)"><g><path d="M18.00006836682558,30.699214935302734Q17.96496836682558,28.660154935302735,16.77436836682558,27.007804935302733Q15.58366836682558,25.355464935302734,13.55256836682558,24.371094935302736Q11.55646836682558,23.421874935302736,9.035048366825581,23.386714935302734Q7.073958366825581,23.386714935302734,5.393028366825581,24.019524935302734Q4.7276583668255805,23.527334935302733,3.5019783668255804,22.929683935302734Q2.171238366825581,22.332027435302734,0.6303793668255806,22.261714935302734Q0.2801853668255806,22.261714935302734,0.1050878668255806,22.613276935302736Q0.000029466825580595768,22.964839935302734,0.2451653668255806,23.210933935302734L0.2451653668255806,23.246089935302734L0.2801853668255806,23.281244935302734Q0.3502243668255806,23.351554935302733,0.4552823668255806,23.492184935302735Q0.7004183668255806,23.738274935302734,0.9805743668255806,24.230464935302734Q1.5759083668255807,25.144524935302734,1.7509983668255806,26.445304935302733Q0.1050878668255806,28.273434935302735,0.0700683668255806,30.699214935302734Q0.1050878668255806,32.73831493530273,1.2957483668255807,34.390614935302736Q2.4864083668255805,36.04291493530273,4.517538366825581,37.02731493530273Q6.5136483668255805,37.97651493530273,9.035048366825581,38.011714935302734Q11.55646836682558,37.97651493530273,13.55256836682558,37.02731493530273Q15.58366836682558,36.04291493530273,16.77436836682558,34.390614935302736Q17.96496836682558,32.73831493530273,18.00006836682558,30.699214935302734Z" fill="#6B7280" fill-opacity="1" style="mix-blend-mode:passthrough"/></g></g></g></g></svg>