<svg xmlns="http://www.w3.org/2000/svg" fill="none" version="1.1" width="15.75" height="28" viewBox="0 0 15.75 28"><defs><clipPath id="master_svg0_3_036"><rect x="0" y="5" width="15.75" height="18" rx="0"/></clipPath></defs><g><rect x="0" y="0" width="15.75" height="28" rx="0" fill="#000000" fill-opacity="0" style="mix-blend-mode:passthrough"/><g clip-path="url(#master_svg0_3_036)"><g transform="matrix(1,0,0,-1,0,46.7734375)"><g><path d="M3.375,40.26171875L3.375,39.13671875L3.375,40.26171875L3.375,39.13671875L1.6875,39.13671875Q0.984375,39.10151875,0.492188,38.64451875Q0.0351562,38.15231875,0,37.44921875L0,35.76171875L15.75,35.76171875L15.75,37.44921875Q15.7148,38.15231875,15.2578,38.64451875Q14.7656,39.10151875,14.0625,39.13671875L12.375,39.13671875L12.375,40.26171875Q12.375,40.75391875,12.0586,41.07031875Q11.7422,41.38671875,11.25,41.38671875Q10.7578,41.38671875,10.4414,41.07031875Q10.125,40.75391875,10.125,40.26171875L10.125,39.13671875L5.625,39.13671875L5.625,40.26171875Q5.625,40.75391875,5.30859,41.07031875Q4.99219,41.38671875,4.5,41.38671875Q4.00781,41.38671875,3.69141,41.07031875Q3.375,40.75391875,3.375,40.26171875ZM15.75,34.63671875L0,34.63671875L15.75,34.63671875L0,34.63671875L0,25.07421875Q0.0351562,24.37109375,0.492188,23.87890675Q0.984375,23.42187495,1.6875,23.38671875L14.0625,23.38671875Q14.7656,23.42187495,15.2578,23.87890675Q15.7148,24.37109375,15.75,25.07421875L15.75,34.63671875Z" fill="#6B7280" fill-opacity="1" style="mix-blend-mode:passthrough"/></g></g></g></g></svg>